<svg xmlns="http://www.w3.org/2000/svg" width="284.801" height="285.679" viewBox="0 0 284.801 285.679"><defs><style>.a{fill:#fff;}.b{fill:#211715;}</style></defs><path class="a" d="M142.406,2.4C59.628,2.4,2.411,66.513,2.411,141.535c0,34.347,9.789,64.316,26.94,87.742a4.5,4.5,0,0,1,.628,4.18c-3.41,9.532-7.452,20.686-11.51,32.164a1,1,0,0,0,1.279,1.278c11.4-4.029,22.474-8.043,31.961-11.438a4.511,4.511,0,0,1,4.22.653c23.273,17.373,52.92,27.166,86.482,27.166,84.7,0,140-58.345,140-141.745C282.411,66,224.893,2.4,142.406,2.4Z"/><path class="b" d="M142.406,0A151.019,151.019,0,0,0,96.283,7.073,137.093,137.093,0,0,0,27.375,56.719,140.413,140.413,0,0,0,7.851,94.159,145.687,145.687,0,0,0,.086,136.837a162.188,162.188,0,0,0,7.251,53.944,142.33,142.33,0,0,0,10.085,24.012q2.971,5.565,6.463,10.829c1.15,1.732,2.676,3.406,3.64,5.239.884,1.679-.627,4.1-1.208,5.719q-2.524,7.035-5.053,14.069-1.363,3.8-2.718,7.6-.645,1.806-1.286,3.613c-.456,1.286-1.249,2.759-1.249,4.149a3.494,3.494,0,0,0,1.779,2.93c1.3.729,2.623.263,3.909-.192q3.772-1.337,7.54-2.683,7.448-2.659,14.888-5.34,3.336-1.2,6.674-2.4a5.886,5.886,0,0,1,2.776-.695c1.007.177,1.9,1.118,2.706,1.7Q61.464,263.083,67,266.3A138.111,138.111,0,0,0,90.824,277.24a157.473,157.473,0,0,0,54.377,8.418,162.682,162.682,0,0,0,43.91-6.491,134.987,134.987,0,0,0,36.827-17.207,125.984,125.984,0,0,0,28.75-26.652,135.471,135.471,0,0,0,19.856-35.235,157.546,157.546,0,0,0,9.5-41.762,159.59,159.59,0,0,0-1.862-44.629,142.477,142.477,0,0,0-14.154-40.241,138.115,138.115,0,0,0-25.117-33.634A136.626,136.626,0,0,0,208.15,15.046,142.646,142.646,0,0,0,165.534,1.717,159.424,159.424,0,0,0,142.406,0c-3.089,0-3.094,4.8,0,4.8a144.829,144.829,0,0,1,55.525,10.818A132.247,132.247,0,0,1,240.9,44.58a133.843,133.843,0,0,1,28.38,42.66,141.5,141.5,0,0,1,10.716,52.025,161.965,161.965,0,0,1-7.794,53.118,129.513,129.513,0,0,1-23.622,42.871A123.248,123.248,0,0,1,211.069,265.2a141.29,141.29,0,0,1-49.4,14.633c-21.546,2.4-43.662.86-64.423-5.529a132.812,132.812,0,0,1-29.324-13.03q-3.438-2.064-6.746-4.338c-2.251-1.549-4.453-3.785-7.278-4.079-2.769-.287-5.685,1.314-8.237,2.231l-8.618,3.1q-4.539,1.63-9.081,3.254-2.33.832-4.662,1.661a26.13,26.13,0,0,1-4.581,1.544H20l-.079-.053.861.861-.053-.078v1.276a32.012,32.012,0,0,1,1.9-5.58q1-2.814,2.008-5.626,1.855-5.186,3.72-10.368,1.738-4.834,3.473-9.67a8.377,8.377,0,0,0,.589-5.179A13.879,13.879,0,0,0,29.944,226a132.963,132.963,0,0,1-16.636-32.471A154.242,154.242,0,0,1,6.372,120.3,138.664,138.664,0,0,1,28.25,63.79,132.482,132.482,0,0,1,72.1,22.957,139.386,139.386,0,0,1,133.767,5.036q4.316-.237,8.639-.236C145.494,4.8,145.5,0,142.406,0Z"/></svg>